<?xml version="1.0" standalone="no"?>
<!DOCTYPE svg PUBLIC "-//W3C//DTD SVG 20010904//EN"
 "http://www.w3.org/TR/2001/REC-SVG-20010904/DTD/svg10.dtd">
<svg version="1.0" xmlns="http://www.w3.org/2000/svg"
 width="470.000000pt" height="470.000000pt" viewBox="0 0 470.000000 470.000000"
 preserveAspectRatio="xMidYMid meet">
<metadata>
Created by potrace 1.14, written by Peter Selinger 2001-2017
</metadata>
<g transform="translate(0.000000,470.000000) scale(0.100000,-0.100000)"
fill="#000000" stroke="none">
<path d="M0 2350 l0 -2350 2350 0 2350 0 0 2350 0 2350 -2350 0 -2350 0 0
-2350z m4012 1823 c-181 -233 -1402 -1845 -1402 -1853 0 -5 319 -425 708 -932
l709 -923 -833 -3 c-458 -1 -1210 -1 -1672 0 l-839 3 713 937 c393 516 714
942 714 948 0 8 -1008 1327 -1358 1778 l-64 82 1677 0 1677 0 -30 -37z"/>
<path d="M900 4106 c0 -7 1272 -1661 1279 -1664 6 -2 371 469 412 531 7 11 79
-39 79 -55 0 -5 -400 -536 -890 -1179 -490 -643 -890 -1171 -890 -1174 0 -3
659 -5 1465 -5 806 0 1465 2 1465 4 0 8 -1271 1661 -1279 1664 -6 2 -371 -468
-412 -531 -7 -10 -79 42 -79 56 0 5 400 535 890 1178 489 643 890 1171 890
1174 0 3 -659 5 -1465 5 -806 0 -1465 -2 -1465 -4z"/>
</g>
</svg>
